<svg height="448" viewBox="0 0 512 448" width="512" xmlns="http://www.w3.org/2000/svg"><g transform="translate(0 -604.3622)"><text x="51.231663" y="1009.7125"><tspan x="0" y="0"><tspan dx="0" dy="0"/></tspan></text><text x="82.929802" y="1080.1998"><tspan x="0" y="0"><tspan dx="0" dy="0"/></tspan></text><path d="m98.937501 604.36297c-19.339953 0-34.937501 15.59755-34.937501 34.9375v29.0625 103.1875l72.8125-72.81249c9.37524-9.37525 24.43726-9.37525 33.8125 0l184.06249 184.06249c9.37526 9.37524 9.37526 24.43725 0 33.81248l-71.74999 71.75002h229.0625v-320h-224v-29.0625c0-19.33995-15.59755-34.9375-34.9375-34.9375z"/><path d="m152.00061 748.3622c-4.09587 0-8.19133 1.56872-11.32979 4.70719l-24.63778 24.63778 27.59654 27.59512a26.307708 26.307708 0 0 1 8.37103-1.40159 26.307708 26.307708 0 0 1 26.3077 26.30771 26.307708 26.307708 0 0 1 -1.39445 8.37816l36.86961 36.86962a26.307708 26.307708 0 0 1 8.37103-1.4016 26.307708 26.307708 0 0 1 26.30771 26.30771 26.307708 26.307708 0 0 1 -26.30771 26.30771 26.307708 26.307708 0 0 1 -26.30771-26.30771 26.307708 26.307708 0 0 1 1.39445-8.37673l-33.54832-33.54832v88.5473a26.307708 26.307708 0 0 1 14.61539 23.53164 26.307708 26.307708 0 0 1 -26.3077 26.30771 26.307708 26.307708 0 0 1 -26.30771-26.30771 26.307708 26.307708 0 0 1 14.61539-23.55447v-93.22167a26.307708 26.307708 0 0 1 -14.61539-23.53164 26.307708 26.307708 0 0 1 1.39446-8.37674l-27.589416-27.58941-94.7902508 94.79025c-6.2769243 6.27693-6.2769243 16.38264 0 22.65958l135.9631268 135.96321c6.27693 6.2768 16.38264 6.2768 22.65957 0l135.96313-135.96321c6.27693-6.27694 6.27693-16.38265 0-22.65958l-135.96313-135.96312c-3.13846-3.13847-7.23392-4.70719-11.32978-4.70719z"/></g></svg>