<svg height="448" width="448" xmlns="http://www.w3.org/2000/svg"><path d="m96 96v69.45117l29.95117-29.95117c9.99927-9.99927 26.09839-9.99927 36.09766 0l150.45117 150.45117c9.99927 9.99927 9.99927 26.09839 0 36.09766l-29.95117 29.95117h165.45117v-256h-96v48h-160v-48z"/><path d="m96 0h352v64h-352z"/><path d="m282.5676 291.1732-125.74224-125.7408c-7.24014-7.2432-18.98406-7.2432-26.2305 0l-26.1081 26.1162 33.11946 33.12c7.6977-2.6028 16.52364-.864 22.65732 5.2812 6.1713 6.174 7.90146 15.075 5.23422 22.8024l31.92534 31.9212c7.72578-2.6622 16.63326-.936 22.8015 5.238 8.61912 8.6202 8.61912 22.5864 0 31.212-8.62542 8.622-22.59162 8.622-31.2201 0-6.48162-6.489-8.08632-16.0164-4.79862-24.003l-29.77506-29.772v78.3486c2.09988 1.044 4.08384 2.4246 5.83272 4.1742 8.61912 8.6184 8.61912 22.5864 0 31.2156-8.61912 8.6148-22.59468 8.6148-31.2075 0-8.61912-8.6328-8.61912-22.599 0-31.2156 2.1312-2.1276 4.59792-3.7386 7.2306-4.8168v-79.0794c-2.63268-1.08-5.0931-2.673-7.2306-4.8168-6.5286-6.5268-8.09892-16.1118-4.75164-24.1272l-32.6493-32.6574-86.2227 86.2146c-7.2432 7.2504-7.2432 18.9954 0 26.2368l125.74854 125.7426c7.24014 7.2432 18.981 7.2432 26.2305 0l125.15616-125.1576c7.2432-7.245 7.2432-18.9954 0-26.2368z"/></svg>